<svg width="15" height="14" viewBox="0 0 15 14" fill="none" xmlns="http://www.w3.org/2000/svg">
<g id="Icon/MapPin">
<path id="Vector" d="M7.5 3.5C7.06735 3.5 6.64442 3.62829 6.28469 3.86866C5.92496 4.10903 5.64458 4.45067 5.47901 4.85038C5.31345 5.25009 5.27013 5.68993 5.35453 6.11426C5.43894 6.53859 5.64728 6.92837 5.9532 7.2343C6.25913 7.54022 6.64891 7.74856 7.07324 7.83297C7.49757 7.91737 7.93741 7.87405 8.33712 7.70849C8.73683 7.54292 9.07847 7.26254 9.31884 6.90281C9.55921 6.54308 9.6875 6.12015 9.6875 5.6875C9.6875 5.10734 9.45703 4.55094 9.0468 4.1407C8.63656 3.73047 8.08016 3.5 7.5 3.5ZM7.5 7C7.24041 7 6.98665 6.92302 6.77081 6.7788C6.55497 6.63458 6.38675 6.4296 6.28741 6.18977C6.18807 5.94994 6.16208 5.68604 6.21272 5.43144C6.26336 5.17684 6.38837 4.94298 6.57192 4.75942C6.75548 4.57587 6.98934 4.45086 7.24394 4.40022C7.49854 4.34958 7.76244 4.37557 8.00227 4.47491C8.2421 4.57425 8.44708 4.74247 8.5913 4.95831C8.73552 5.17415 8.8125 5.42791 8.8125 5.6875C8.8125 6.0356 8.67422 6.36944 8.42808 6.61558C8.18194 6.86172 7.8481 7 7.5 7ZM7.5 0.875C6.22409 0.876447 5.00085 1.38394 4.09865 2.28615C3.19644 3.18835 2.68895 4.41159 2.6875 5.6875C2.6875 7.40469 3.48102 9.22469 4.98438 10.9512C5.65989 11.7313 6.42017 12.4338 7.25117 13.0457C7.32473 13.0972 7.41237 13.1249 7.50219 13.1249C7.592 13.1249 7.67964 13.0972 7.7532 13.0457C8.58268 12.4336 9.34148 11.7311 10.0156 10.9512C11.5168 9.22469 12.3125 7.40469 12.3125 5.6875C12.3111 4.41159 11.8036 3.18835 10.9014 2.28615C9.99915 1.38394 8.77591 0.876447 7.5 0.875ZM7.5 12.1406C6.59602 11.4297 3.5625 8.81836 3.5625 5.6875C3.5625 4.64321 3.97734 3.64169 4.71577 2.90327C5.45419 2.16484 6.45571 1.75 7.5 1.75C8.54429 1.75 9.54581 2.16484 10.2842 2.90327C11.0227 3.64169 11.4375 4.64321 11.4375 5.6875C11.4375 8.81727 8.40398 11.4297 7.5 12.1406Z" fill="#C3C3C4"/>
</g>
</svg>
